:SAMPLES-PER-SECOND 30
:FULLY-SPECIFIED
:DEGREES
330
root  -3.09258 41.018 0.0821481 12.8879 -87.9393 -10.0068
RightUpLeg  1.22117 -0.80525 -0.348668
RightLeg  -6.17802 -21.5195 3.30915
RightFoot  2.49943 -0.202656 1.8095
RightToes  -3.13588e-008 1.75238e-005 3.56266e-009
Spine  3.98195 0.320927 -4.05789
Spine1  -6.85474 -0.161773 4.27507
HEad  -8.47417 -5.45011 4.15352
LeftShoulder1  1.92464 -2.6865 -24.903
LeftArm  -29.0388 -8.98903 -37.3479
LeftForeArm  99.3562 -80.3796 -89.1062
LeftHand  -0.630357 -4.3383 7.79698
RightShoulder  2.23641 4.00513 23.648
RightArm  -2.10021 -4.02673 37.43
RightForeArm  19.5457 61.0085 18.8439
RightHand  -0.502687 7.60951 -4.84345
LeftUpLeg  0.00791451 1.41389 4.10565
LeftLeg  -3.97561 13.0545 -1.03852
LeftFoot  2.42455 0.442716 -3.78951
LeftToes  4.76812e-008 1.47286e-008 1.3089e-009
331
root  -3.13787 41.0188 0.148138 14.5878 -87.7635 -11.795
RightUpLeg  1.53896 -0.775372 -0.331088
RightLeg  -6.4726 -21.6758 3.38835
RightFoot  2.58196 -0.217374 1.92412
RightToes  -3.13588e-008 1.75238e-005 3.56266e-009
Spine  3.47866 0.311666 -3.64869
Spine1  -6.51864 -0.160072 4.16254
HEad  -8.47882 -5.15862 3.9354
LeftShoulder1  1.94862 -2.72226 -25.1186
LeftArm  -26.0605 -3.17733 -39.7779
LeftForeArm  96.1461 -80.3519 -86.0898
LeftHand  -0.59268 -4.16555 7.48482
RightShoulder  2.14777 3.75631 23.4411
RightArm  -3.71765 -2.35796 37.5143
RightForeArm  20.3024 61.6623 19.3572
RightHand  -0.477478 7.69424 -4.59284
LeftUpLeg  0.0612627 1.51991 4.15067
LeftLeg  -3.78183 12.7744 -1.04411
LeftFoot  2.22519 0.436793 -3.78556
LeftToes  4.76812e-008 1.47286e-008 1.3089e-009
332
root  -3.1687 41.0195 0.222812 11.9688 -87.9087 -9.1485
RightUpLeg  1.43619 -0.955453 -0.59654
RightLeg  -6.18662 -21.3572 3.25658
RightFoot  2.47669 -0.238544 2.1074
RightToes  -3.13588e-008 1.75238e-005 3.56266e-009
Spine  3.32923 0.392185 -3.26753
Spine1  -6.78942 -0.0232494 3.79065
HEad  -8.6123 -4.7474 3.97141
LeftShoulder1  1.94034 -2.64884 -25.3666
LeftArm  -22.0979 4.14115 -41.7391
LeftForeArm  90.4161 -80.1476 -83.8792
LeftHand  -0.700698 -3.71589 9.18593
RightShoulder  2.12675 3.70917 23.333
RightArm  -5.33733 -0.936955 37.1846
RightForeArm  21.3308 63.1578 20.7007
RightHand  -0.471647 7.78815 -4.51602
LeftUpLeg  0.177079 1.43478 3.9252
LeftLeg  -3.91591 13.0005 -1.16023
LeftFoot  2.16326 0.420357 -3.66127
LeftToes  4.76812e-008 1.47286e-008 1.3089e-009
333
root  -3.18567 41.0199 0.290929 12.7859 -88.1229 -9.96194
RightUpLeg  1.31307 -1.00689 -0.711769
RightLeg  -5.90377 -21.0645 3.10154
RightFoot  2.41552 -0.252212 2.22656
RightToes  -3.13588e-008 1.75238e-005 3.56266e-009
Spine  3.2126 0.45531 -2.7081
Spine1  -6.96445 0.0966554 3.31273
HEad  -9.06383 -4.50065 3.71398
LeftShoulder1  1.97648 -2.67048 -25.8617
LeftArm  -19.5685 10.8298 -43.8774
LeftForeArm  77.4658 -79.6668 -72.7497
LeftHand  -0.687084 -3.9368 8.81454
RightShoulder  2.00791 3.37067 23.0482
RightArm  -7.30253 0.947928 37.5601
RightForeArm  22.3037 64.6432 22.2205
RightHand  -0.42749 8.06206 -4.05413
LeftUpLeg  0.262356 1.37376 3.79991
LeftLeg  -3.95722 13.2828 -1.18179
LeftFoot  2.07744 0.413745 -3.62443
LeftToes  4.76812e-008 1.47286e-008 1.3089e-009
334
root  -3.23272 41.0199 0.364107 15.931 -88.2794 -13.1971
RightUpLeg  1.54525 -0.998279 -0.737727
RightLeg  -6.0464 -20.8877 3.09797
RightFoot  2.43225 -0.254746 2.2457
RightToes  -3.13588e-008 1.75238e-005 3.56266e-009
Spine  2.95465 0.339402 -1.85883
Spine1  -6.91896 0.0733149 2.44306
HEad  -9.5267 -4.62891 3.57813
LeftShoulder1  1.95484 -2.58729 -25.9441
LeftArm  -17.6148 17.9219 -46.0358
LeftForeArm  65.0586 -78.6567 -60.5042
LeftHand  -0.655345 -3.62671 8.69135
RightShoulder  2.01466 3.41604 22.9429
RightArm  -8.99628 2.75966 37.7568
RightForeArm  22.0427 65.7987 23.7029
RightHand  -0.494232 7.80789 -4.70606
LeftUpLeg  0.453681 1.37804 3.75208
LeftLeg  -3.9178 13.4511 -1.16594
LeftFoot  1.91799 0.40449 -3.57994
LeftToes  4.76812e-008 1.47286e-008 1.3089e-009
335
root  -3.29566 41.0188 0.420914 17.6929 -88.6543 -15.0222
RightUpLeg  1.62915 -0.921602 -0.784294
RightLeg  -5.93794 -20.5886 2.86136
RightFoot  2.38522 -0.263466 2.32395
RightToes  -3.13588e-008 1.75238e-005 3.56266e-009
Spine  2.70667 0.416748 -1.37445
Spine1  -6.85018 0.21725 1.83482
HEad  -10.0252 -4.63004 3.87995
LeftShoulder1  1.76704 -2.03539 -25.7406
LeftArm  -16.8615 24.0451 -49.3785
LeftForeArm  51.3139 -76.4834 -46.5626
LeftHand  -0.603511 -3.28253 8.31847
RightShoulder  1.85497 2.94122 22.5976
RightArm  -10.5948 4.30021 38.6983
RightForeArm  22.3662 66.4433 24.5351
RightHand  -0.530544 7.69969 -5.0605
LeftUpLeg  0.778437 1.38646 3.64145
LeftLeg  -4.08681 13.8194 -1.28574
LeftFoot  1.81931 0.369575 -3.29823
LeftToes  4.76812e-008 1.47286e-008 1.3089e-009
336
root  -3.34492 41.0151 0.469194 27.0106 -89.3299 -24.4302
RightUpLeg  1.52309 -0.989421 -0.98335
RightLeg  -5.44 -19.8422 2.52617
RightFoot  2.16249 -0.284344 2.52485
RightToes  -3.13588e-008 1.75238e-005 3.56266e-009
Spine  2.97569 0.670998 -1.35756
Spine1  -7.37124 0.49611 1.67056
HEad  -10.1935 -4.39608 4.09575
LeftShoulder1  1.65609 -1.70287 -25.6412
LeftArm  -18.0497 30.0699 -52.9536
LeftForeArm  43.4211 -73.9149 -36.7743
LeftHand  -0.555263 -2.94577 7.97092
RightShoulder  1.76552 2.64168 22.546
RightArm  -11.8343 5.37805 39.2467
RightForeArm  23.5592 66.324 24.1984
RightHand  -0.534223 7.97618 -4.99948
LeftUpLeg  1.22298 1.30314 3.41012
LeftLeg  -4.40221 14.5821 -1.43698
LeftFoot  1.79971 0.354902 -3.19582
LeftToes  4.76812e-008 1.47286e-008 1.3089e-009
